<?xml version="1.0" encoding="iso-8859-1"?>
<!-- Generator: Adobe Illustrator 16.0.0, SVG Export Plug-In . SVG Version: 6.00 Build 0)  -->
<!DOCTYPE svg PUBLIC "-//W3C//DTD SVG 1.1//EN" "http://www.w3.org/Graphics/SVG/1.1/DTD/svg11.dtd">
<svg version="1.1" id="Layer_1" xmlns="http://www.w3.org/2000/svg" xmlns:xlink="http://www.w3.org/1999/xlink" x="0px" y="0px"
	 width="33px" height="32.499px" viewBox="0 0 33 32.499" style="enable-background:new 0 0 127 32.499;" xml:space="preserve">
<path style="fill:#ffffff;" d="M13.835,8c0,0.734-0.596,1.333-1.329,1.333h-2.139c-0.733,0-1.33-0.599-1.33-1.333
	c0-0.733,0.597-1.334,1.33-1.334h2.139C13.239,6.666,13.835,7.267,13.835,8z"/>
<path style="fill:#ffffff;" d="M13.029,11.666c0,0.733-0.596,1.333-1.329,1.333h-0.998c-0.733,0-1.329-0.6-1.329-1.333
	s0.596-1.333,1.329-1.333H11.7C12.433,10.333,13.029,10.933,13.029,11.666z"/>
<path style="fill:#ffffff;" d="M10.711,15.441c0,0.744-0.604,1.348-1.346,1.348S8.02,16.185,8.02,15.441
	c0-0.743,0.604-1.347,1.346-1.347S10.711,14.698,10.711,15.441z"/>
<path style="fill:#ffffff;" d="M8.975,11.752c0,0.743-0.603,1.348-1.345,1.348c-0.742,0-1.346-0.604-1.346-1.348
	s0.604-1.347,1.346-1.347C8.372,10.405,8.975,11.009,8.975,11.752z"/>
<path style="fill:#ffffff;" d="M7.466,15.333c0,0.733-0.596,1.333-1.329,1.333H4.329c-0.732,0-1.329-0.6-1.329-1.333
	s0.596-1.333,1.329-1.333h1.809C6.87,13.999,7.466,14.599,7.466,15.333z"/>
<path style="fill:#ffffff;" d="M14.768,4.333c0,0.734-0.596,1.333-1.329,1.333h-0.034c-0.733,0-1.329-0.599-1.329-1.333
	C12.076,3.6,12.672,3,13.405,3h0.034C14.171,3,14.768,3.6,14.768,4.333z"/>
<path style="fill:#ffffff;" d="M18.923,15.441c0,0.744-0.604,1.348-1.346,1.348c-0.742,0-1.346-0.604-1.346-1.348
	c0-0.743,0.604-1.347,1.346-1.347C18.319,14.094,18.923,14.698,18.923,15.441z"/>
<path style="fill:#ffffff;" d="M10.016,26.665c0,0.734-0.596,1.333-1.329,1.333H8.653c-0.732,0-1.329-0.599-1.329-1.333
	c0-0.733,0.596-1.333,1.329-1.333h0.034C9.42,25.332,10.016,25.931,10.016,26.665z"/>
<path style="fill:#ffffff;" d="M15.816,18.999c0,0.733-0.596,1.333-1.329,1.333h-3.979c-0.733,0-1.329-0.6-1.329-1.333
	c0-0.734,0.596-1.333,1.329-1.333h3.979C15.22,17.666,15.816,18.265,15.816,18.999z"/>
<path style="fill:#ffffff;" d="M11.212,15.333c0-0.733,0.596-1.333,1.329-1.333h1.808c0.732,0,1.329,0.6,1.329,1.333
	s-0.596,1.333-1.329,1.333h-1.808C11.808,16.666,11.212,16.066,11.212,15.333z"/>
<path style="fill:#ffffff;" d="M13.055,22.666c0,0.733-0.596,1.333-1.33,1.333H9.587c-0.732,0-1.329-0.599-1.329-1.333
	c0-0.734,0.597-1.333,1.329-1.333h2.138C12.459,21.332,13.055,21.931,13.055,22.666z"/>
</svg>
